<?xml version="1.0" encoding="UTF-8" standalone="no"?><!DOCTYPE svg PUBLIC "-//W3C//DTD SVG 1.1//EN" "http://www.w3.org/Graphics/SVG/1.1/DTD/svg11.dtd"><svg width="100%" height="100%" viewBox="0 0 342 124" version="1.1" xmlns="http://www.w3.org/2000/svg" xmlns:xlink="http://www.w3.org/1999/xlink" xml:space="preserve" xmlns:serif="http://www.serif.com/" style="fill-rule:evenodd;clip-rule:evenodd;stroke-linecap:round;stroke-linejoin:round;stroke-miterlimit:1.5;"><rect id="Artboard2" x="-214" y="-369" width="1393.74" height="799.12" style="fill:none;"/><path d="M310.595,32.138c2.625,-0 4.458,-2.601 3.575,-5.073l-4.374,-12.248c-0.54,-1.511 -1.971,-2.519 -3.575,-2.519l-39.999,-0c-1.604,-0 -3.036,1.008 -3.575,2.519l-5.168,14.47c-0.54,1.511 -1.971,2.519 -3.575,2.519l-13.169,0c-2.097,0 -3.796,1.7 -3.796,3.796l0,12.248c0,2.097 1.699,3.796 3.796,3.796l12.248,0c2.097,0 3.796,-1.699 3.796,-3.796l0,-11.916c0,-2.097 1.7,-3.796 3.796,-3.796l50.02,-0Zm-73.656,43.116c0,-2.096 1.699,-3.796 3.796,-3.796l12.248,0c2.097,0 3.796,1.7 3.796,3.796l0,11.908c0,2.097 1.7,3.796 3.796,3.796l50.02,0c2.625,0 4.458,2.601 3.575,5.073l-4.374,12.248c-0.54,1.51 -1.971,2.519 -3.575,2.519l-39.999,-0c-1.604,-0 -3.036,-1.009 -3.575,-2.519l-5.165,-14.462c-0.54,-1.51 -1.971,-2.519 -3.575,-2.519l-13.172,0c-2.097,0 -3.796,-1.699 -3.796,-3.796l0,-12.248Zm94.606,-3.777c2.097,0 3.796,-1.699 3.796,-3.796l0,-12.248c0,-2.096 -1.699,-3.796 -3.796,-3.796l-51.22,0c-2.097,0 -3.796,1.7 -3.796,3.796l-0,12.248c-0,2.097 1.699,3.796 3.796,3.796l51.22,0Z" style="fill:#fff;"/><g><path d="M166.776,50.119l22.858,22.858" style="fill:none;stroke:#fff;stroke-width:6px;"/><path d="M189.634,50.119l-22.858,22.858" style="fill:none;stroke:#fff;stroke-width:6px;"/></g><path d="M62.516,28.508c-1.68,0.31 -3.34,0.69 -4.99,1.14c0.77,0.73 1.81,1.4 2.92,1.19c1.11,-0.26 1.69,-1.35 2.07,-2.33m-11.5,5.81c1.11,0.38 2.49,0.59 3.47,-0.2c1.11,-0.92 1.24,-2.49 1.13,-3.83c-1.9,0.83 -3.48,2.31 -4.61,4.03m-6.94,56.1c0.36,1.02 1.56,1.72 2.62,1.38c1,-0.27 1.74,-1.29 1.64,-2.33c0.06,-1.45 -1.59,-2.69 -2.95,-2.1c-1.19,0.42 -1.79,1.9 -1.31,3.05m9.36,-14.04c0,-1.97 0.1,-3.95 -0.24,-5.9c-0.19,-1.17 -1.09,-2 -1.7,-2.96c-2.315,-3.411 -3.635,-7.401 -3.81,-11.52c-0.67,2.9 -0.56,6.1 0.82,8.79c0.699,1.271 1.673,2.371 2.85,3.22c-1.56,0.05 -3.28,-0.31 -4.35,-1.55c-1.81,-2.11 -3.45,-4.37 -5.38,-6.38c-0.547,-0.581 -1.15,-1.107 -1.8,-1.57c-0.38,-0.25 -0.84,-0.51 -1.32,-0.37c-1.09,0.29 -2.14,0.68 -3.19,1.07c3.4,8.06 6.82,16.12 10.23,24.17c0.11,0.32 0.42,0.48 0.69,0.64c1.92,1.08 3.81,2.21 5.73,3.29c-0.76,2.18 -1.57,4.34 -2.36,6.52c0.87,-0.22 1.74,-0.41 2.62,-0.6c0.52,-5.61 1.03,-11.23 1.2,-16.87m24.04,3.88c-0.64,-2.29 -1.35,-4.63 -2.73,-6.59c-0.803,-1.207 -2.092,-2.007 -3.53,-2.19c-1.81,-0.2 -3.6,0.27 -5.38,0.48c-2.24,0.355 -4.523,0.345 -6.76,-0.03c-0.55,1.44 -0.85,2.97 -1.21,4.46c-1.216,5.496 -2.353,11.01 -3.41,16.54c3.88,-0.44 7.79,-0.36 11.67,-0.06c2.05,-1.78 4.06,-3.59 6,-5.48c1.64,-1.61 3.31,-3.23 4.67,-5.1c0.39,-0.6 0.93,-1.28 0.67,-2.04m10.52,2.81c0.54,-1.08 -0.18,-2.19 -0.69,-3.13c-1.441,-2.365 -3.12,-4.576 -5.01,-6.6c-3.572,-3.304 -6.068,-7.609 -7.16,-12.35c0.02,2.25 0.49,4.5 1.32,6.6c0.807,2.239 2.448,4.082 4.58,5.14c-0.546,0.946 -0.81,2.029 -0.76,3.12c0.526,1.505 1.289,2.916 2.26,4.18c-1.62,2.19 -3.62,4.07 -5.53,6c-2.11,2.1 -4.333,4.083 -6.66,5.94c-0.682,0.573 -1.523,0.925 -2.41,1.01l0,0.27l0.11,-0.21c2.57,0.29 5.13,0.63 7.68,1.08c1.35,0.22 2.67,0.53 4.02,0.73c1.449,-1.757 2.856,-3.547 4.22,-5.37c1.48,-2.04 3.04,-4.08 4.04,-6.41m5.06,-2.16c-0.3,0.72 -0.78,1.36 -1.2,2.02c-1.91,2.78 -3.96,5.45 -5.96,8.15c-0.83,1.14 -1.7,2.25 -2.42,3.47c-0.34,0.55 -1.03,0.65 -1.6,0.82c1.72,0.39 3.41,0.85 5.11,1.32c1.93,0.52 3.9,0.85 5.84,1.36c-2.29,0.18 -4.58,-0.19 -6.84,-0.51c-8.06,-1.1 -16.22,-1.77 -24.35,-1.23c-4.43,0.31 -8.87,1 -13.09,2.42c-3,1.03 -5.96,2.38 -8.4,4.46c0.24,-2.334 1.338,-4.498 3.08,-6.07c1,-0.94 2.21,-1.61 3.42,-2.23c-2.06,-0.74 -4.11,-1.5 -6.16,-2.26c0.83,-2.74 1.69,-5.48 2.55,-8.21l-5.93,-14.12c-1.86,0.86 -3.68,1.8 -5.54,2.66c-0.62,-1.31 -1.32,-2.58 -1.91,-3.9l1.92,-0.88c0,0.53 0,1.13 0.39,1.55c0.66,0.84 2.12,0.74 2.65,-0.19c0.49,-0.72 0.25,-1.71 -0.39,-2.26c0.69,-0.08 1.4,-0.45 1.61,-1.17c0.45,-1.09 -0.59,-2.41 -1.75,-2.22c-0.56,0.05 -0.99,0.44 -1.27,0.9c-0.1,-0.72 -0.5,-1.46 -1.25,-1.65c-1.03,-0.36 -2.18,0.57 -2.11,1.64c-0.03,0.74 0.57,1.25 1.11,1.65c-0.61,0.34 -1.22,0.69 -1.84,1.01c-0.57,-1.29 -1.16,-2.56 -1.74,-3.84c-0.65,-1.16 0.08,-2.61 1.04,-3.35c1.932,-1.402 4.015,-2.583 6.21,-3.52c1.446,-0.661 2.972,-1.129 4.54,-1.39c0.88,-0.1 1.87,-0.14 2.62,0.41l4.36,3.03c-0.89,-2.09 -0.73,-4.47 -0.07,-6.6c0.53,-2.02 1.1,-4.1 0.88,-6.2c0.03,-0.32 -0.32,-0.36 -0.55,-0.43c-2.48,-0.62 -4.96,-1.27 -7.43,-1.92c-0.7,-0.15 -1.2,-0.69 -1.64,-1.21c-0.37,-0.41 -0.28,-1.01 -0.22,-1.51c0.05,-0.32 0.41,-0.4 0.66,-0.51c1.91,-0.7 3.81,-1.43 5.74,-2.07c1.48,-0.49 2.85,-1.24 4.27,-1.87l-0.16,-1.06c-0.69,0.37 -1.43,0.73 -2.24,0.74c-1.7,-0.003 -3.19,-1.178 -3.59,-2.83c-0.359,-1.725 -0.181,-3.519 0.51,-5.14c0.42,0.02 0.91,0.35 0.74,0.83c-0.46,1.59 -0.53,3.47 0.5,4.86c0.5,0.69 1.4,0.83 2.19,0.7c-0.58,-0.62 -1.18,-1.3 -1.29,-2.18c-0.29,-2.03 0.59,-4 1.62,-5.7c0.13,-0.34 0.68,-0.38 0.81,-0.01c0.26,0.37 -0.05,0.77 -0.22,1.1c-0.76,1.34 -1.2,3.01 -0.71,4.52c0.22,0.73 0.92,1.16 1.65,1.24c0.13,-1.71 0.68,-3.37 1.46,-4.88c-0.349,-0.673 -0.55,-1.413 -0.59,-2.17c0.005,-1.187 0.463,-2.329 1.28,-3.19c0.24,-0.23 0.48,-0.59 0.86,-0.44c0.3,0.25 0.39,0.78 0.06,1.04c-0.861,0.928 -1.183,2.238 -0.85,3.46c1.04,-1.49 2.48,-2.62 3.77,-3.88c-0.595,-0.786 -0.974,-1.713 -1.1,-2.69c-0.1,-1.537 0.572,-3.027 1.79,-3.97c0.42,-0.04 0.64,0.41 0.61,0.78c-0.32,0.51 -0.8,0.92 -0.98,1.52c-0.411,1.183 -0.217,2.496 0.52,3.51c0.71,-0.82 1.46,-1.63 1.95,-2.61c0.55,-1.06 0.74,-2.25 0.97,-3.42c0.037,-0.355 0.34,-0.627 0.696,-0.627c0.052,-0 0.104,0.005 0.154,0.017c0.15,0.81 0.09,1.64 -0.08,2.45c-0.199,1.295 -0.688,2.529 -1.43,3.61c-1.05,1.39 -2.39,2.53 -3.56,3.82c-0.82,0.92 -1.74,1.77 -2.37,2.83c-0.804,1.402 -1.299,2.96 -1.45,4.57c0.44,-0.2 0.87,-0.43 1.15,-0.83c1.375,-1.651 3.091,-2.985 5.03,-3.91c-0.28,-0.54 -0.75,-1.32 -0.05,-1.76c0.7,-0.04 0.79,0.87 1.1,1.33c2.2,-0.65 4.49,-0.87 6.7,-1.47c-0.03,-0.61 -0.1,-1.22 -0.19,-1.83c0.19,-0.2 0.39,-0.39 0.59,-0.57l0.45,0.24c0.11,0.63 0.18,1.27 0.22,1.92c0.51,-0.14 1.01,-0.31 1.51,-0.49c-0.319,-1.288 -0.232,-2.644 0.25,-3.88c0.735,-1.634 2.025,-2.956 3.64,-3.73c0.24,-0.15 0.69,-0.18 0.68,0.2c0.04,0.63 -0.58,0.98 -1.03,1.29c-1.667,1.208 -2.523,3.255 -2.21,5.29c1.037,-0.845 1.949,-1.831 2.71,-2.93c0.44,-0.58 1.03,-1.32 1.86,-1.07c-0.11,0.92 -0.68,1.68 -1.17,2.43c-0.749,1.126 -1.628,2.16 -2.62,3.08c-1.055,0.856 -2.312,1.431 -3.65,1.67c-0.24,1.54 -0.84,3.26 -2.36,3.95c-1.47,0.77 -3.28,0.35 -4.52,-0.67c0.126,1.74 -0.722,3.413 -2.2,4.34c-1.41,0.91 -3.23,0.68 -4.69,-0l-0.19,0.38c0.4,0.23 0.78,0.48 1.16,0.75c1.26,-0.14 2.61,-0.22 3.8,0.29c0.46,0.18 0.62,0.78 0.33,1.18c-0.53,0.8 -1.53,1.04 -2.35,1.44c0.809,1.678 1.777,3.275 2.89,4.77c0.9,1.17 1.85,2.3 2.7,3.52c0.89,1.23 1.6,2.61 2.71,3.66c1.207,1.154 2.709,1.954 4.34,2.31c2.29,0.57 4.68,0.58 7.03,0.48c2.95,0.05 5.91,0.19 8.84,-0.18c1.193,-0.207 2.412,-0.224 3.61,-0.05c2.651,0.523 4.916,2.245 6.13,4.66c1.11,2.19 1.2,4.72 0.9,7.12c-0.157,1.629 -0.621,3.214 -1.37,4.67c-0.25,-2.24 -0.36,-4.49 -0.6,-6.72c-0.17,2.09 -0.31,4.18 -0.41,6.27c-0.03,0.78 -0.01,1.58 0.27,2.32c0.9,2.51 2.07,4.91 3.04,7.39c0.08,0.28 0.25,0.58 0.11,0.87m27.8,-19.36c0,-0.027 0,-0.054 0,-0.08c0,-32.416 -26.674,-59.09 -59.09,-59.09c0,-0 0,-0 0,-0c-32.432,-0 -59.12,26.687 -59.12,59.12c0,32.432 26.688,59.12 59.12,59.12c32.432,-0 59.12,-26.688 59.12,-59.12" style="fill:#fff;fill-rule:nonzero;"/></svg>