<?xml version="1.0" encoding="UTF-8" standalone="no"?><!DOCTYPE svg PUBLIC "-//W3C//DTD SVG 1.1//EN" "http://www.w3.org/Graphics/SVG/1.1/DTD/svg11.dtd"><svg width="100%" height="100%" viewBox="0 0 1121 131" version="1.1" xmlns="http://www.w3.org/2000/svg" xmlns:xlink="http://www.w3.org/1999/xlink" xml:space="preserve" xmlns:serif="http://www.serif.com/" style="fill-rule:evenodd;clip-rule:evenodd;stroke-linecap:round;stroke-linejoin:round;stroke-miterlimit:1.5;"><rect id="Artboard2" x="-91" y="-520" width="1393.74" height="799.12" style="fill:none;"/><g><g><path d="M740.582,36.361c2.625,0 4.457,-2.6 3.574,-5.072l-4.374,-12.248c-0.539,-1.511 -1.97,-2.52 -3.574,-2.52l-40,0c-1.604,0 -3.035,1.009 -3.575,2.52l-5.167,14.47c-0.54,1.51 -1.971,2.519 -3.575,2.519l-13.17,-0c-2.096,-0 -3.795,1.699 -3.795,3.796l-0,12.248c-0,2.096 1.699,3.796 3.795,3.796l12.249,-0c2.096,-0 3.796,-1.7 3.796,-3.796l-0,-11.917c-0,-2.096 1.699,-3.796 3.796,-3.796l50.02,0Zm-73.656,43.116c-0,-2.096 1.699,-3.795 3.795,-3.795l12.249,-0c2.096,-0 3.796,1.699 3.796,3.795l-0,11.908c-0,2.097 1.699,3.797 3.796,3.797l50.02,-0c2.625,-0 4.457,2.6 3.574,5.072l-4.374,12.249c-0.539,1.51 -1.97,2.519 -3.574,2.519l-40,-0c-1.604,-0 -3.035,-1.009 -3.575,-2.519l-5.164,-14.462c-0.54,-1.51 -1.971,-2.519 -3.575,-2.519l-13.173,0c-2.096,0 -3.795,-1.7 -3.795,-3.796l-0,-12.249Zm94.605,-3.776c2.097,-0 3.797,-1.7 3.797,-3.796l-0,-12.248c-0,-2.097 -1.7,-3.796 -3.797,-3.796l-51.22,-0c-2.096,-0 -3.796,1.699 -3.796,3.796l0,12.248c0,2.096 1.7,3.796 3.796,3.796l51.22,-0Z" style="fill:#fff;"/></g><g><path d="M1092.75,97.699c-3.795,-0 -7.449,-0.494 -10.961,-1.483c-2.936,-0.888 -5.361,-1.925 -7.275,-3.108c-0.57,-0.352 -0.75,-1.083 -0.454,-1.684l2.882,-5.854c0.362,-0.737 1.288,-0.988 2.004,-0.585c1.746,0.983 3.742,1.82 5.987,2.511c2.832,0.872 5.664,1.308 8.496,1.308c3.343,-0 5.751,-0.465 7.223,-1.395c1.53,-0.93 2.295,-2.181 2.295,-3.75c-0,-1.279 -0.51,-2.238 -1.53,-2.878c-1.02,-0.697 -2.351,-1.22 -3.994,-1.57c-1.642,-0.348 -3.484,-0.668 -5.523,-0.958c-1.983,-0.291 -3.994,-0.669 -6.033,-1.134c-1.983,-0.523 -3.796,-1.25 -5.438,-2.18c-1.642,-0.988 -2.974,-2.297 -3.994,-3.924c-1.02,-1.628 -1.529,-3.779 -1.529,-6.453c-0,-2.965 0.821,-5.523 2.464,-7.674c1.643,-2.209 3.937,-3.895 6.883,-5.058c3.002,-1.221 6.542,-1.831 10.621,-1.831c3.059,-0 6.146,0.349 9.262,1.046c2.595,0.581 4.817,1.364 6.664,2.348c0.62,0.33 0.833,1.095 0.524,1.724l-2.868,5.824c-0.357,0.725 -1.26,0.98 -1.972,0.598c-1.728,-0.927 -3.473,-1.577 -5.237,-1.948c-2.153,-0.523 -4.306,-0.785 -6.458,-0.785c-3.229,0 -5.636,0.494 -7.222,1.483c-1.53,0.988 -2.295,2.238 -2.295,3.749c0,1.396 0.51,2.442 1.53,3.14c1.02,0.697 2.351,1.25 3.993,1.657c1.643,0.407 3.456,0.755 5.439,1.046c2.039,0.233 4.05,0.61 6.033,1.134c1.982,0.523 3.795,1.25 5.438,2.18c1.699,0.872 3.058,2.122 4.078,3.749c1.02,1.628 1.53,3.75 1.53,6.366c-0,2.907 -0.85,5.436 -2.55,7.587c-1.642,2.151 -3.993,3.837 -7.052,5.058c-3.059,1.163 -6.713,1.744 -10.961,1.744Z" style="fill:#fff;fill-rule:nonzero;"/><path d="M1050.22,97.699c-3.795,-0 -7.449,-0.494 -10.961,-1.483c-2.936,-0.888 -5.361,-1.925 -7.275,-3.108c-0.57,-0.352 -0.75,-1.083 -0.454,-1.684l2.882,-5.854c0.363,-0.737 1.288,-0.988 2.004,-0.585c1.746,0.983 3.742,1.82 5.987,2.511c2.832,0.872 5.664,1.308 8.496,1.308c3.343,-0 5.751,-0.465 7.223,-1.395c1.53,-0.93 2.295,-2.181 2.295,-3.75c-0,-1.279 -0.51,-2.238 -1.53,-2.878c-1.02,-0.697 -2.351,-1.22 -3.993,-1.57c-1.643,-0.348 -3.485,-0.668 -5.524,-0.958c-1.983,-0.291 -3.994,-0.669 -6.033,-1.134c-1.983,-0.523 -3.795,-1.25 -5.438,-2.18c-1.642,-0.988 -2.974,-2.297 -3.994,-3.924c-1.02,-1.628 -1.529,-3.779 -1.529,-6.453c-0,-2.965 0.821,-5.523 2.464,-7.674c1.643,-2.209 3.937,-3.895 6.883,-5.058c3.002,-1.221 6.542,-1.831 10.621,-1.831c3.059,-0 6.146,0.349 9.262,1.046c2.595,0.581 4.817,1.364 6.664,2.348c0.62,0.33 0.833,1.095 0.524,1.724l-2.868,5.824c-0.357,0.725 -1.259,0.98 -1.972,0.598c-1.727,-0.927 -3.473,-1.577 -5.237,-1.948c-2.153,-0.523 -4.306,-0.785 -6.458,-0.785c-3.229,0 -5.636,0.494 -7.222,1.483c-1.53,0.988 -2.295,2.238 -2.295,3.749c0,1.396 0.51,2.442 1.53,3.14c1.02,0.697 2.351,1.25 3.993,1.657c1.643,0.407 3.456,0.755 5.439,1.046c2.039,0.233 4.05,0.61 6.033,1.134c1.982,0.523 3.795,1.25 5.438,2.18c1.699,0.872 3.059,2.122 4.078,3.749c1.02,1.628 1.53,3.75 1.53,6.366c-0,2.907 -0.85,5.436 -2.549,7.587c-1.643,2.151 -3.994,3.837 -7.053,5.058c-3.059,1.163 -6.713,1.744 -10.961,1.744Z" style="fill:#fff;fill-rule:nonzero;"/><path d="M1004.78,97.699c-5.041,-0 -9.46,-1.018 -13.255,-3.052c-3.739,-2.094 -6.656,-4.942 -8.752,-8.546c-2.039,-3.605 -3.059,-7.703 -3.059,-12.296c-0,-4.651 0.991,-8.749 2.974,-12.295c2.039,-3.605 4.815,-6.424 8.328,-8.459c3.568,-2.035 7.618,-3.052 12.15,-3.052c4.419,-0 8.356,0.988 11.811,2.965c3.456,1.976 6.175,4.767 8.157,8.371c1.983,3.605 2.975,7.848 2.975,12.732c-0,0.465 -0.029,0.988 -0.086,1.569c-0,0.147 -0.002,0.291 -0.005,0.433c-0.018,0.698 -0.609,1.224 -1.307,1.224l-35.218,0c-0.754,0 -1.367,-0.612 -1.367,-1.367l-0,-4.504c-0,-0.755 0.613,-1.367 1.367,-1.367l27.543,0c0.87,0 1.165,1.16 0.401,1.576c-0.565,0.308 -1.259,-0.111 -1.299,-0.754c-0.133,-2.085 -0.661,-3.958 -1.585,-5.618c-1.133,-2.034 -2.691,-3.633 -4.674,-4.796c-1.926,-1.163 -4.164,-1.744 -6.713,-1.744c-2.605,0 -4.9,0.581 -6.882,1.744c-1.927,1.163 -3.456,2.791 -4.589,4.884c-1.076,2.034 -1.614,4.447 -1.614,7.237l-0,1.744c-0,2.791 0.623,5.262 1.869,7.413c1.246,2.15 3.002,3.807 5.268,4.97c2.266,1.163 4.872,1.744 7.817,1.744c2.55,0 4.844,-0.406 6.883,-1.22c1.583,-0.632 3.029,-1.544 4.339,-2.737c0.611,-0.555 1.573,-0.543 2.106,0.087l3.942,4.65c0.43,0.507 0.437,1.254 -0.018,1.738c-1.907,2.029 -4.231,3.632 -6.97,4.807c-3.059,1.279 -6.571,1.919 -10.537,1.919Z" style="fill:#fff;fill-rule:nonzero;"/><path d="M963.718,97.501c-0.873,0.248 -1.742,-0.407 -1.742,-1.315l0,-58.004c0,-0.572 0.356,-1.083 0.892,-1.282l7.887,-2.924c0.893,-0.331 1.842,0.33 1.842,1.282l0,58.678c0,0.61 -0.404,1.147 -0.992,1.314l-7.887,2.251Z" style="fill:#fff;fill-rule:nonzero;"/><path d="M927.928,97.701c-4.361,0 -8.298,-0.989 -11.81,-2.965c-3.456,-2.035 -6.175,-4.825 -8.158,-8.371c-1.983,-3.547 -2.974,-7.732 -2.974,-12.558c-0,-4.825 0.991,-9.011 2.974,-12.557c1.983,-3.546 4.702,-6.308 8.158,-8.284c3.512,-1.977 7.449,-2.965 11.81,-2.965c3.796,0 7.195,0.872 10.197,2.616c3.002,1.686 5.381,4.273 7.137,7.761c1.756,3.488 2.634,7.965 2.634,13.429c0,5.407 -0.849,9.883 -2.548,13.429c-1.7,3.489 -4.051,6.104 -7.053,7.849c-3.003,1.744 -6.458,2.616 -10.367,2.616Zm1.275,-9.331c2.549,-0 4.815,-0.581 6.798,-1.744c2.039,-1.162 3.654,-2.849 4.843,-5.058c1.246,-2.209 1.869,-4.796 1.869,-7.761c-0,-3.023 -0.623,-5.61 -1.869,-7.761c-1.189,-2.209 -2.804,-3.895 -4.843,-5.057c-1.983,-1.163 -4.249,-1.744 -6.798,-1.744c-2.549,-0 -4.844,0.581 -6.882,1.744c-1.984,1.162 -3.598,2.848 -4.844,5.057c-1.19,2.151 -1.785,4.738 -1.785,7.761c0,2.965 0.595,5.552 1.785,7.761c1.246,2.209 2.86,3.896 4.844,5.058c2.038,1.163 4.333,1.744 6.882,1.744Zm15.525,9.1c-0.877,0.263 -1.76,-0.393 -1.76,-1.31l-0,-10.057l0.425,-12.383l-0.85,-12.383l0,-23.44c0,-0.584 0.371,-1.103 0.922,-1.293l7.802,-2.687c0.888,-0.305 1.813,0.354 1.813,1.293l-0,58.74c-0,0.604 -0.396,1.136 -0.975,1.31l-7.377,2.21Z" style="fill:#fff;fill-rule:nonzero;"/><path d="M879.531,49.999c3.626,-0 6.855,0.727 9.687,2.18c2.889,1.453 5.155,3.691 6.798,6.715c1.643,2.964 2.464,6.801 2.464,11.51l0,25.317c0,0.755 -0.612,1.367 -1.367,1.367l-7.887,0c-0.755,0 -1.367,-0.612 -1.367,-1.367l-0,-23.922c-0,-4.127 -0.963,-7.208 -2.889,-9.243c-1.869,-2.035 -4.504,-3.052 -7.902,-3.052c-2.493,-0 -4.702,0.523 -6.628,1.57c-1.926,1.046 -3.427,2.616 -4.504,4.709c-1.02,2.034 -1.53,4.621 -1.53,7.761l0,22.177c0,0.755 -0.612,1.367 -1.366,1.367l-7.888,0c-0.754,0 -1.366,-0.612 -1.366,-1.367l-0,-40.327c-0,-0.563 0.346,-1.069 0.87,-1.274l7.378,-2.872c0.896,-0.349 1.863,0.312 1.863,1.273l0,6.748c0,0.902 -1.227,1.173 -1.607,0.355c-0.111,-0.24 -0.105,-0.52 0.026,-0.751c1.576,-2.784 3.803,-4.929 6.679,-6.433c3.059,-1.627 6.572,-2.441 10.536,-2.441Z" style="fill:#fff;fill-rule:nonzero;"/><path d="M811.14,62.772c0,-0.755 0.612,-1.367 1.367,-1.367l26.836,0c0.755,0 1.367,0.612 1.367,1.367l0,6.597c0,0.755 -0.612,1.367 -1.367,1.367l-26.836,-0c-0.755,-0 -1.367,-0.612 -1.367,-1.367l0,-6.597Zm0.85,23.427c-0,0.755 0.612,1.367 1.367,1.367l30.83,0c0.754,0 1.366,0.612 1.366,1.367l0,6.771c0,0.755 -0.612,1.367 -1.366,1.367l-41.877,-0c-0.754,-0 -1.366,-0.612 -1.366,-1.367l-0,-58.308c-0,-0.755 0.612,-1.367 1.366,-1.367l40.687,0c0.755,0 1.367,0.612 1.367,1.367l0,6.771c0,0.755 -0.612,1.367 -1.367,1.367l-29.64,0c-0.755,0 -1.367,0.612 -1.367,1.367l-0,39.298Z" style="fill:#fff;fill-rule:nonzero;"/></g></g><g><path d="M65.79,32.589c-1.68,0.31 -3.34,0.69 -4.99,1.14c0.77,0.73 1.81,1.4 2.92,1.19c1.11,-0.26 1.69,-1.35 2.07,-2.33m-11.5,5.81c1.11,0.38 2.49,0.59 3.47,-0.2c1.11,-0.92 1.24,-2.49 1.13,-3.83c-1.9,0.83 -3.48,2.31 -4.61,4.03m-6.94,56.1c0.36,1.02 1.56,1.72 2.62,1.38c1,-0.27 1.74,-1.29 1.64,-2.33c0.06,-1.45 -1.59,-2.69 -2.95,-2.1c-1.19,0.42 -1.79,1.9 -1.31,3.05m9.36,-14.04c-0,-1.97 0.1,-3.95 -0.24,-5.9c-0.19,-1.17 -1.09,-2 -1.7,-2.96c-2.316,-3.411 -3.635,-7.401 -3.81,-11.52c-0.67,2.9 -0.56,6.1 0.82,8.79c0.699,1.272 1.673,2.372 2.85,3.22c-1.56,0.05 -3.28,-0.31 -4.35,-1.55c-1.81,-2.11 -3.45,-4.37 -5.38,-6.38c-0.547,-0.581 -1.15,-1.106 -1.8,-1.57c-0.38,-0.25 -0.84,-0.51 -1.32,-0.37c-1.09,0.29 -2.14,0.68 -3.19,1.07c3.4,8.06 6.82,16.12 10.23,24.17c0.11,0.32 0.42,0.48 0.69,0.64c1.92,1.08 3.81,2.21 5.73,3.29c-0.76,2.18 -1.57,4.34 -2.36,6.52c0.87,-0.22 1.74,-0.41 2.62,-0.6c0.52,-5.61 1.03,-11.23 1.2,-16.87m24.04,3.88c-0.64,-2.29 -1.35,-4.63 -2.73,-6.59c-0.803,-1.206 -2.092,-2.006 -3.53,-2.19c-1.81,-0.2 -3.6,0.27 -5.38,0.48c-2.24,0.356 -4.523,0.345 -6.76,-0.03c-0.55,1.44 -0.85,2.97 -1.21,4.46c-1.217,5.497 -2.353,11.011 -3.41,16.54c3.88,-0.44 7.79,-0.36 11.67,-0.06c2.05,-1.78 4.06,-3.59 6,-5.48c1.64,-1.61 3.31,-3.23 4.67,-5.1c0.39,-0.6 0.93,-1.28 0.67,-2.04m10.52,2.81c0.54,-1.08 -0.18,-2.19 -0.69,-3.13c-1.441,-2.364 -3.12,-4.576 -5.01,-6.6c-3.573,-3.303 -6.068,-7.608 -7.16,-12.35c0.02,2.25 0.49,4.5 1.32,6.6c0.806,2.24 2.448,4.082 4.58,5.14c-0.546,0.946 -0.81,2.029 -0.76,3.12c0.526,1.505 1.289,2.916 2.26,4.18c-1.62,2.19 -3.62,4.07 -5.53,6c-2.11,2.1 -4.334,4.083 -6.66,5.94c-0.683,0.573 -1.523,0.926 -2.41,1.01l-0,0.27l0.11,-0.21c2.57,0.29 5.13,0.63 7.68,1.08c1.35,0.22 2.67,0.53 4.02,0.73c1.449,-1.756 2.856,-3.547 4.22,-5.37c1.48,-2.04 3.04,-4.08 4.04,-6.41m5.06,-2.16c-0.3,0.72 -0.78,1.36 -1.2,2.02c-1.91,2.78 -3.96,5.45 -5.96,8.15c-0.83,1.14 -1.7,2.25 -2.42,3.47c-0.34,0.55 -1.03,0.65 -1.6,0.82c1.72,0.39 3.41,0.85 5.11,1.32c1.93,0.52 3.9,0.85 5.84,1.36c-2.29,0.18 -4.58,-0.19 -6.84,-0.51c-8.06,-1.1 -16.22,-1.77 -24.35,-1.23c-4.43,0.31 -8.87,1 -13.09,2.42c-3,1.03 -5.96,2.38 -8.4,4.46c0.239,-2.334 1.338,-4.498 3.08,-6.07c1,-0.94 2.21,-1.61 3.42,-2.23c-2.06,-0.74 -4.11,-1.5 -6.16,-2.26c0.83,-2.74 1.69,-5.48 2.55,-8.21l-5.93,-14.12c-1.86,0.86 -3.68,1.8 -5.54,2.66c-0.62,-1.31 -1.32,-2.58 -1.91,-3.9l1.92,-0.88c-0,0.53 -0,1.13 0.39,1.55c0.66,0.84 2.12,0.74 2.65,-0.19c0.49,-0.72 0.25,-1.71 -0.39,-2.26c0.69,-0.08 1.4,-0.45 1.61,-1.17c0.45,-1.09 -0.59,-2.41 -1.75,-2.22c-0.56,0.05 -0.99,0.44 -1.27,0.9c-0.1,-0.72 -0.5,-1.46 -1.25,-1.65c-1.03,-0.36 -2.18,0.57 -2.11,1.64c-0.03,0.74 0.57,1.25 1.11,1.65c-0.61,0.34 -1.22,0.69 -1.84,1.01c-0.57,-1.29 -1.16,-2.56 -1.74,-3.84c-0.65,-1.16 0.08,-2.61 1.04,-3.35c1.932,-1.401 4.015,-2.582 6.21,-3.52c1.445,-0.661 2.972,-1.128 4.54,-1.39c0.88,-0.1 1.87,-0.14 2.62,0.41l4.36,3.03c-0.89,-2.09 -0.73,-4.47 -0.07,-6.6c0.53,-2.02 1.1,-4.1 0.88,-6.2c0.03,-0.32 -0.32,-0.36 -0.55,-0.43c-2.48,-0.62 -4.96,-1.27 -7.43,-1.92c-0.7,-0.15 -1.2,-0.69 -1.64,-1.21c-0.37,-0.41 -0.28,-1.01 -0.22,-1.51c0.05,-0.32 0.41,-0.4 0.66,-0.51c1.91,-0.7 3.81,-1.43 5.74,-2.07c1.48,-0.49 2.85,-1.24 4.27,-1.87l-0.16,-1.06c-0.69,0.37 -1.43,0.73 -2.24,0.74c-1.701,-0.002 -3.19,-1.177 -3.59,-2.83c-0.359,-1.725 -0.181,-3.519 0.51,-5.14c0.42,0.02 0.91,0.35 0.74,0.83c-0.46,1.59 -0.53,3.47 0.5,4.86c0.5,0.69 1.4,0.83 2.19,0.7c-0.58,-0.62 -1.18,-1.3 -1.29,-2.18c-0.29,-2.03 0.59,-4 1.62,-5.7c0.13,-0.34 0.68,-0.38 0.81,-0.01c0.26,0.37 -0.05,0.77 -0.22,1.1c-0.76,1.34 -1.2,3.01 -0.71,4.52c0.22,0.73 0.92,1.16 1.65,1.24c0.13,-1.71 0.68,-3.37 1.46,-4.88c-0.349,-0.673 -0.55,-1.413 -0.59,-2.17c0.004,-1.187 0.462,-2.328 1.28,-3.19c0.24,-0.23 0.48,-0.59 0.86,-0.44c0.3,0.25 0.39,0.78 0.06,1.04c-0.861,0.929 -1.183,2.239 -0.85,3.46c1.04,-1.49 2.48,-2.62 3.77,-3.88c-0.595,-0.785 -0.974,-1.712 -1.1,-2.69c-0.1,-1.537 0.572,-3.027 1.79,-3.97c0.42,-0.04 0.64,0.41 0.61,0.78c-0.32,0.51 -0.8,0.92 -0.98,1.52c-0.412,1.184 -0.217,2.497 0.52,3.51c0.71,-0.82 1.46,-1.63 1.95,-2.61c0.55,-1.06 0.74,-2.25 0.97,-3.42c0.037,-0.354 0.339,-0.627 0.696,-0.627c0.052,0 0.103,0.006 0.154,0.017c0.15,0.81 0.09,1.64 -0.08,2.45c-0.2,1.296 -0.689,2.53 -1.43,3.61c-1.05,1.39 -2.39,2.53 -3.56,3.82c-0.82,0.92 -1.74,1.77 -2.37,2.83c-0.805,1.402 -1.299,2.961 -1.45,4.57c0.44,-0.2 0.87,-0.43 1.15,-0.83c1.375,-1.65 3.091,-2.984 5.03,-3.91c-0.28,-0.54 -0.75,-1.32 -0.05,-1.76c0.7,-0.04 0.79,0.87 1.1,1.33c2.2,-0.65 4.49,-0.87 6.7,-1.47c-0.03,-0.61 -0.1,-1.22 -0.19,-1.83c0.19,-0.2 0.39,-0.39 0.59,-0.57l0.45,0.24c0.11,0.63 0.18,1.27 0.22,1.92c0.51,-0.14 1.01,-0.31 1.51,-0.49c-0.319,-1.288 -0.232,-2.643 0.25,-3.88c0.735,-1.633 2.025,-2.955 3.64,-3.73c0.24,-0.15 0.69,-0.18 0.68,0.2c0.04,0.63 -0.58,0.98 -1.03,1.29c-1.668,1.208 -2.523,3.255 -2.21,5.29c1.036,-0.844 1.949,-1.83 2.71,-2.93c0.44,-0.58 1.03,-1.32 1.86,-1.07c-0.11,0.92 -0.68,1.68 -1.17,2.43c-0.749,1.127 -1.629,2.161 -2.62,3.08c-1.056,0.857 -2.312,1.432 -3.65,1.67c-0.24,1.54 -0.84,3.26 -2.36,3.95c-1.47,0.77 -3.28,0.35 -4.52,-0.67c0.126,1.74 -0.722,3.414 -2.2,4.34c-1.41,0.91 -3.23,0.68 -4.69,0l-0.19,0.38c0.4,0.23 0.78,0.48 1.16,0.75c1.26,-0.14 2.61,-0.22 3.8,0.29c0.46,0.18 0.62,0.78 0.33,1.18c-0.53,0.8 -1.53,1.04 -2.35,1.44c0.809,1.679 1.777,3.276 2.89,4.77c0.9,1.17 1.85,2.3 2.7,3.52c0.89,1.23 1.6,2.61 2.71,3.66c1.206,1.155 2.708,1.954 4.34,2.31c2.29,0.57 4.68,0.58 7.03,0.48c2.95,0.05 5.91,0.19 8.84,-0.18c1.193,-0.206 2.411,-0.223 3.61,-0.05c2.651,0.524 4.916,2.246 6.13,4.66c1.11,2.19 1.2,4.72 0.9,7.12c-0.157,1.63 -0.622,3.215 -1.37,4.67c-0.25,-2.24 -0.36,-4.49 -0.6,-6.72c-0.17,2.09 -0.31,4.18 -0.41,6.27c-0.03,0.78 -0.01,1.58 0.27,2.32c0.9,2.51 2.07,4.91 3.04,7.39c0.08,0.28 0.25,0.58 0.11,0.87m27.8,-19.36c-0,-0.026 -0,-0.053 -0,-0.08c-0,-32.415 -26.674,-59.09 -59.09,-59.09c-0,0 -0,0 -0,0c-32.433,0 -59.12,26.688 -59.12,59.12c-0,32.433 26.687,59.12 59.12,59.12c32.432,0 59.12,-26.687 59.12,-59.12m33.75,-30.96c4.9,0 8.17,-2.98 8.17,-8.71l-0,-11.27l-2.21,0l-0,11.44c-0,4.3 -2.29,6.49 -5.9,6.49c-3.61,0 -5.99,-2.39 -5.99,-6.63l-0,-11.3l-2.21,0l-0,11.44c-0,5.56 3.3,8.54 8.14,8.54" style="fill:#fff;fill-rule:nonzero;"/><g><path d="M182.39,34.359l2.16,0l-0,-16.13l12.65,16.13l1.77,0l-0,-19.67l-2.16,0l-0,15.76l-12.34,-15.76l-2.08,0l-0,19.67Z" style="fill:#fff;fill-rule:nonzero;"/><path d="M182.39,34.359l2.16,0l-0,-16.13l12.65,16.13l1.77,0l-0,-19.67l-2.16,0l-0,15.76l-12.34,-15.76l-2.08,0l-0,19.67Z" style="fill:#fff;fill-rule:nonzero;"/><rect x="216.7" y="14.689" width="1.88" height="19.67" style="fill:#fff;fill-rule:nonzero;"/><rect x="216.7" y="14.689" width="1.88" height="19.67" style="fill:#fff;fill-rule:nonzero;"/><path d="M242.17,34.499l1.94,0l8.37,-19.81l-2.36,0l-6.95,16.95l-6.92,-16.95l-2.45,0l8.37,19.81Z" style="fill:#fff;fill-rule:nonzero;"/><path d="M242.17,34.499l1.94,0l8.37,-19.81l-2.36,0l-6.95,16.95l-6.92,-16.95l-2.45,0l8.37,19.81Z" style="fill:#fff;fill-rule:nonzero;"/><path d="M266.82,34.359l14.25,0l-0,-2.02l-12.05,0l-0,-6.89l10.66,0l-0,-2.02l-10.66,0l-0,-6.71l11.91,0l-0,-2.03l-14.11,0l-0,19.67Z" style="fill:#fff;fill-rule:nonzero;"/><path d="M266.82,34.359l14.25,0l-0,-2.02l-12.05,0l-0,-6.89l10.66,0l-0,-2.02l-10.66,0l-0,-6.71l11.91,0l-0,-2.03l-14.11,0l-0,19.67Z" style="fill:#fff;fill-rule:nonzero;"/><path d="M309.72,20.679c-0,2.53 -2.08,4.05 -4.98,4.05l-5.95,0l-0,-7.98l5.98,0c3.13,0 4.95,1.46 4.95,3.88l-0,0.06l-0,-0.01Zm2.21,-0.08l-0,-0.06c0.03,-1.437 -0.506,-2.831 -1.49,-3.88c-1.22,-1.24 -3.13,-1.97 -5.51,-1.97l-8.33,0l-0,19.67l2.19,0l-0,-7.64l5.53,0l5.62,7.64l2.68,0l-5.95,-8.03c3.04,-0.56 5.26,-2.47 5.26,-5.73" style="fill:#fff;fill-rule:nonzero;"/><path d="M309.72,20.679c-0,2.53 -2.08,4.05 -4.98,4.05l-5.95,0l-0,-7.98l5.98,0c3.13,0 4.95,1.46 4.95,3.88l-0,0.06l-0,-0.01Zm2.21,-0.08l-0,-0.06c0.03,-1.437 -0.506,-2.831 -1.49,-3.88c-1.22,-1.24 -3.13,-1.97 -5.51,-1.97l-8.33,0l-0,19.67l2.19,0l-0,-7.64l5.53,0l5.62,7.64l2.68,0l-5.95,-8.03c3.04,-0.56 5.26,-2.47 5.26,-5.73Z" style="fill:#fff;fill-rule:nonzero;"/><path d="M334.61,34.649c3.86,0 6.64,-2.19 6.64,-5.57l-0,-0.06c-0,-3.01 -2,-4.61 -6.33,-5.57c-4.28,-0.93 -5.28,-1.97 -5.28,-3.82l-0,-0.06c-0,-1.77 1.61,-3.18 4.14,-3.18c2,0 3.8,0.65 5.61,2.14l1.28,-1.71c-1.97,-1.6 -4,-2.42 -6.83,-2.42c-3.69,0 -6.39,2.28 -6.39,5.37l-0,0.06c-0,3.23 2.06,4.69 6.53,5.68c4.08,0.87 5.06,1.91 5.06,3.74l-0,0.06c-0,1.94 -1.72,3.35 -4.33,3.35c-2.61,0 -4.64,-0.93 -6.67,-2.78l-1.36,1.63c2.134,2.051 4.99,3.182 7.95,3.15" style="fill:#fff;fill-rule:nonzero;"/><path d="M334.61,34.649c3.86,0 6.64,-2.19 6.64,-5.57l-0,-0.06c-0,-3.01 -2,-4.61 -6.33,-5.57c-4.28,-0.93 -5.28,-1.97 -5.28,-3.82l-0,-0.06c-0,-1.77 1.61,-3.18 4.14,-3.18c2,0 3.8,0.65 5.61,2.14l1.28,-1.71c-1.97,-1.6 -4,-2.42 -6.83,-2.42c-3.69,0 -6.39,2.28 -6.39,5.37l-0,0.06c-0,3.23 2.06,4.69 6.53,5.68c4.08,0.87 5.06,1.91 5.06,3.74l-0,0.06c-0,1.94 -1.72,3.35 -4.33,3.35c-2.61,0 -4.64,-0.93 -6.67,-2.78l-1.36,1.63c2.134,2.051 4.99,3.182 7.95,3.15l-0.02,-0.01Z" style="fill:#fff;fill-rule:nonzero;"/><rect x="357.04" y="14.689" width="1.88" height="19.67" style="fill:#fff;fill-rule:nonzero;"/><rect x="357.04" y="14.689" width="1.88" height="19.67" style="fill:#fff;fill-rule:nonzero;"/><path d="M380.9,34.359l2.24,0l-0,-17.62l6.56,0l-0,-2.05l-15.36,0l-0,2.05l6.56,0l-0,17.62Z" style="fill:#fff;fill-rule:nonzero;"/><path d="M380.9,34.359l2.24,0l-0,-17.62l6.56,0l-0,-2.05l-15.36,0l-0,2.05l6.56,0l-0,17.62Z" style="fill:#fff;fill-rule:nonzero;"/><path d="M411.05,34.359l2.2,0l-0,-7.81l8.03,-11.86l-2.54,0l-6.56,9.84l-6.51,-9.84l-2.65,0l8.03,11.89l-0,7.78Z" style="fill:#fff;fill-rule:nonzero;"/><path d="M411.05,34.359l2.2,0l-0,-7.81l8.03,-11.86l-2.54,0l-6.56,9.84l-6.51,-9.84l-2.65,0l8.03,11.89l-0,7.78Z" style="fill:#fff;fill-rule:nonzero;"/><path d="M472.09,24.579c-0,4.47 -3.2,8.07 -7.7,8.07c-4.5,0 -7.76,-3.65 -7.76,-8.12l-0,-0.06c-0,-4.47 3.2,-8.07 7.7,-8.07c4.5,0 7.76,3.65 7.76,8.12l-0,0.06Zm2.3,-0.06c-0,0 0.03,-0.03 -0,-0.06c-0,-5.43 -4.02,-10.12 -10.01,-10.12c-5.99,0 -10.06,4.75 -10.06,10.18l-0,0.06c-0,5.43 4.02,10.12 10,10.12c5.98,0 10.06,-4.75 10.06,-10.18" style="fill:#fff;fill-rule:nonzero;"/><path d="M472.09,24.579c-0,4.47 -3.2,8.07 -7.7,8.07c-4.5,0 -7.76,-3.65 -7.76,-8.12l-0,-0.06c-0,-4.47 3.2,-8.07 7.7,-8.07c4.5,0 7.76,3.65 7.76,8.12l-0,0.06Zm2.3,-0.06c-0,0 0.03,-0.03 -0,-0.06c-0,-5.43 -4.02,-10.12 -10.01,-10.12c-5.99,0 -10.06,4.75 -10.06,10.18l-0,0.06c-0,5.43 4.02,10.12 10,10.12c5.98,0 10.06,-4.75 10.06,-10.18l0.01,0Z" style="fill:#fff;fill-rule:nonzero;"/><path d="M490.16,34.359l2.2,0l-0,-8.57l10.57,0l-0,-2.02l-10.57,0l-0,-7.03l11.82,0l-0,-2.05l-14.02,0l-0,19.67Z" style="fill:#fff;fill-rule:nonzero;"/><path d="M490.16,34.359l2.2,0l-0,-8.57l10.57,0l-0,-2.02l-10.57,0l-0,-7.03l11.82,0l-0,-2.05l-14.02,0l-0,19.67Z" style="fill:#fff;fill-rule:nonzero;"/><path d="M204.65,89.599l-0,-36.84l13.84,0l-0,36.47c-0,10.5 5.12,15.93 13.57,15.93c8.45,0 13.57,-5.25 13.57,-15.47l-0,-36.93l13.84,0l-0,36.38c-0,19.53 -10.69,29.11 -27.59,29.11c-16.9,0 -27.23,-9.67 -27.23,-28.65m285.52,-36.86l-15.28,25.89l-15,-25.89l-16.18,0l24.17,39.06l-0,25.42l13.85,0l-0,-25.7l24.17,-38.78l-15.73,0Zm-193.27,31.32c6.74,0 10.61,-3.68 10.61,-9.12l-0,-0.19c-0,-6.08 -4.13,-9.21 -10.88,-9.21l-13.75,0l-0,18.52l14.02,0Zm-27.87,-31.32l28.77,0c8,0 14.2,2.3 18.33,6.54c3.51,3.59 5.39,8.66 5.39,14.74l-0,0.18c-0,10.41 -5.48,16.95 -13.48,19.99l15.37,23.03l-16.18,0l-13.48,-20.63l-10.88,0l-0,20.63l-13.84,0l-0,-64.48Zm90.98,31.32c6.74,0 10.61,-3.68 10.61,-9.12l-0,-0.19c-0,-6.08 -4.13,-9.21 -10.88,-9.21l-13.75,0l-0,18.52l14.02,0Zm-27.87,-31.32l28.77,0c8,0 14.2,2.3 18.33,6.54c3.51,3.59 5.39,8.66 5.39,14.74l-0,0.18c-0,10.41 -5.48,16.95 -13.48,19.99l15.37,23.03l-16.18,0l-13.48,-20.63l-10.88,0l-0,20.63l-13.84,0l-0,-64.48Zm-168.64,17.36l-0,-0.19c-0,-3.14 2.8,-5.64 8.12,-5.64c5.32,0 10.64,2.34 16.14,6.19l0.39,-0.65l6.23,-10.54c-6.447,-5.015 -14.413,-7.689 -22.58,-7.58c-12.9,0 -22.09,7.76 -22.09,19.5l-0,0.18c-0,12.85 8.2,16.45 20.92,19.78c10.55,2.77 12.71,4.62 12.71,8.22l-0,0.18c-0,3.79 -3.43,6.1 -9.11,6.1c-7.17,0 -13.08,-3.01 -18.73,-7.77l-6.69,11.32c7.31,6 16.26,9.01 25.15,9.01c13.61,0 23.17,-7.21 23.17,-20.05l-0,-0.19c-0,-11.27 -7.21,-15.99 -20.02,-19.41c-10.91,-2.86 -13.62,-4.25 -13.62,-8.5m244.97,34.54l-0,-13.03l25.57,0l-0,-13.18l-25.57,0l-0,-13.03l30.57,0l-0,-12.62l-44.32,0l-0,64.48l44.32,0l-0,-12.62l-30.57,0Z" style="fill:#fff;fill-rule:nonzero;"/></g></g><g><path d="M563.972,43.189l44.881,44.881" style="fill:none;stroke:#fff;stroke-width:6px;"/><path d="M608.853,43.189l-44.881,44.881" style="fill:none;stroke:#fff;stroke-width:6px;"/></g></svg>