<svg viewBox="0 0 280 58" xmlns="http://www.w3.org/2000/svg" xml:space="preserve" style="fill-rule:evenodd;clip-rule:evenodd;stroke-linejoin:round;stroke-miterlimit:2">
    <path d="M58.641 12.518a5.08 5.08 0 0 1-1.384-.187 3.923 3.923 0 0 1-.919-.392.163.163 0 0 1-.057-.213l.364-.74a.182.182 0 0 1 .253-.073c.22.124.473.229.756.317.358.11.716.165 1.073.165.422 0 .727-.059.913-.176.193-.118.289-.276.289-.474a.4.4 0 0 0-.193-.363 1.411 1.411 0 0 0-.504-.199c-.208-.044-.44-.084-.698-.121a9.948 9.948 0 0 1-.762-.143 2.91 2.91 0 0 1-.687-.275 1.503 1.503 0 0 1-.504-.496c-.129-.206-.193-.477-.193-.815 0-.375.103-.698.311-.969.207-.279.497-.492.869-.639.379-.154.827-.231 1.342-.231.386 0 .776.044 1.17.132.327.073.608.172.841.296a.163.163 0 0 1 .066.218l-.362.736a.182.182 0 0 1-.249.075 2.486 2.486 0 0 0-.661-.246 3.45 3.45 0 0 0-.816-.099c-.408 0-.712.062-.912.187-.193.125-.29.283-.29.474 0 .176.064.308.193.396.129.088.297.158.505.21.207.051.436.095.686.132.258.029.512.077.762.143.251.066.48.158.687.275.215.111.387.268.515.474.129.206.194.474.194.804 0 .367-.108.687-.322.958-.208.272-.505.485-.891.639-.386.147-.848.22-1.385.22ZM53.27 12.518c-.479 0-.941-.062-1.384-.187a3.923 3.923 0 0 1-.919-.392.163.163 0 0 1-.057-.213l.364-.74a.182.182 0 0 1 .253-.073c.22.124.472.229.756.317.358.11.715.165 1.073.165.422 0 .726-.059.912-.176.194-.118.29-.276.29-.474a.4.4 0 0 0-.193-.363 1.411 1.411 0 0 0-.504-.199 10.933 10.933 0 0 0-.698-.121 9.858 9.858 0 0 1-.762-.143 2.91 2.91 0 0 1-.687-.275 1.494 1.494 0 0 1-.504-.496c-.129-.206-.194-.477-.194-.815 0-.375.104-.698.312-.969.207-.279.497-.492.869-.639.379-.154.826-.231 1.342-.231.386 0 .776.044 1.169.132.328.073.609.172.842.296a.164.164 0 0 1 .066.218l-.362.736a.182.182 0 0 1-.249.075 2.486 2.486 0 0 0-.661-.246 3.45 3.45 0 0 0-.816-.099c-.408 0-.712.062-.912.187-.194.125-.29.283-.29.474 0 .176.064.308.193.396.129.088.297.158.504.21.208.051.437.095.687.132.258.029.512.077.762.143.251.066.48.158.687.275.215.111.387.268.515.474.129.206.194.474.194.804 0 .367-.108.687-.322.958-.208.272-.505.485-.891.639-.387.147-.848.22-1.385.22ZM47.531 12.518c-.636 0-1.195-.128-1.674-.385a2.88 2.88 0 0 1-1.105-1.079 3.097 3.097 0 0 1-.387-1.554c0-.587.125-1.105.376-1.553a2.803 2.803 0 0 1 1.052-1.068 3.04 3.04 0 0 1 1.534-.385c.559 0 1.056.124 1.492.374.437.25.78.602 1.031 1.057.25.456.375.992.375 1.609 0 .058-.003.124-.011.198v.054a.161.161 0 0 1-.165.155H45.6a.172.172 0 0 1-.172-.173V9.2c0-.096.077-.173.172-.173h3.479c.11 0 .147.146.051.199-.071.039-.159-.014-.164-.095a1.67 1.67 0 0 0-.2-.71 1.607 1.607 0 0 0-1.439-.826c-.329 0-.618.073-.869.22a1.588 1.588 0 0 0-.579.617 1.93 1.93 0 0 0-.204.914v.221c0 .352.078.664.236.936.157.271.379.481.665.628.286.146.616.22.988.22.322 0 .611-.051.869-.154.2-.08.382-.195.548-.346a.186.186 0 0 1 .266.011l.498.587a.166.166 0 0 1-.002.22 2.596 2.596 0 0 1-.881.607c-.386.162-.83.242-1.331.242ZM42.344 12.493a.172.172 0 0 1-.22-.166V5.001c0-.072.045-.137.113-.162l.996-.369a.173.173 0 0 1 .233.162v7.411a.173.173 0 0 1-.125.166l-.997.284ZM37.824 12.519a2.987 2.987 0 0 1-1.492-.375 2.774 2.774 0 0 1-1.03-1.057c-.251-.448-.376-.977-.376-1.586 0-.61.125-1.138.376-1.586a2.7 2.7 0 0 1 1.03-1.047 2.997 2.997 0 0 1 1.492-.374c.479 0 .909.11 1.288.33.379.213.679.54.901.981.222.44.333 1.005.333 1.696 0 .683-.107 1.248-.322 1.696-.215.44-.512.771-.891.991a2.55 2.55 0 0 1-1.309.331Zm.161-1.179c.322 0 .608-.073.858-.22.258-.147.462-.36.612-.639.157-.279.236-.606.236-.98 0-.382-.079-.709-.236-.981a1.564 1.564 0 0 0-.612-.638 1.661 1.661 0 0 0-.858-.221 1.72 1.72 0 0 0-.869.221 1.658 1.658 0 0 0-.612.638c-.151.272-.226.599-.226.981 0 .374.075.701.226.98.157.279.361.492.612.639.257.147.547.22.869.22Zm1.961 1.15a.173.173 0 0 1-.223-.166v-1.27l.054-1.564-.107-1.564V4.965c0-.074.047-.139.116-.163l.986-.34a.173.173 0 0 1 .229.164v7.419c0 .076-.05.143-.123.165l-.932.28ZM31.711 6.494c.458 0 .866.091 1.223.275.365.183.652.466.859.848.208.374.311.859.311 1.454v3.198a.172.172 0 0 1-.172.172h-.997a.172.172 0 0 1-.172-.172V9.247c0-.521-.122-.91-.365-1.167-.236-.257-.569-.386-.998-.386-.315 0-.594.066-.837.198a1.371 1.371 0 0 0-.569.595c-.129.257-.193.584-.193.98v2.802a.173.173 0 0 1-.173.172h-.996a.172.172 0 0 1-.173-.172V7.175c0-.071.044-.135.11-.161l.932-.363a.173.173 0 0 1 .235.161v.852c0 .114-.155.149-.203.045a.106.106 0 0 1 .003-.095c.199-.351.481-.622.844-.812.387-.206.83-.308 1.331-.308ZM23.073 8.107c0-.095.077-.173.172-.173h3.39c.095 0 .173.078.173.173v.833a.174.174 0 0 1-.173.173h-3.39a.173.173 0 0 1-.172-.173v-.833Zm.107 2.959c0 .095.077.173.173.173h3.894c.095 0 .172.077.172.172v.856a.172.172 0 0 1-.172.172h-5.29a.172.172 0 0 1-.172-.172V4.902c0-.096.077-.173.172-.173h5.139c.096 0 .173.077.173.173v.855a.173.173 0 0 1-.173.173h-3.743a.172.172 0 0 0-.173.172v4.964Z" style="fill:#fff;fill-rule:nonzero" transform="translate(-153.191 -31.14) scale(7.0596)"/>
</svg>
