<svg width="67" height="14" viewBox="0 0 67 14" fill="none" xmlns="http://www.w3.org/2000/svg">
<path d="M60.8776 12.5316C60.1402 12.5316 59.4303 12.4381 58.7479 12.251C58.1775 12.0827 57.7064 11.8865 57.3346 11.6626C57.2246 11.5963 57.1896 11.4558 57.2475 11.3411L57.8104 10.227C57.8792 10.0909 58.0504 10.0444 58.1839 10.1181C58.526 10.3071 58.9176 10.4677 59.3587 10.6C59.9091 10.7651 60.4594 10.8477 61.0097 10.8477C61.6591 10.8477 62.1268 10.7596 62.413 10.5835C62.7102 10.4074 62.8587 10.1708 62.8587 9.87362C62.8587 9.63148 62.7597 9.44988 62.5616 9.32881C62.3635 9.19673 62.1048 9.09767 61.7856 9.03164C61.4665 8.9656 61.1088 8.90506 60.7125 8.85003C60.3273 8.795 59.9366 8.72346 59.5404 8.63541C59.1551 8.53635 58.8029 8.39877 58.4838 8.22267C58.1646 8.03557 57.9059 7.78793 57.7078 7.47975C57.5097 7.17157 57.4106 6.76434 57.4106 6.25805C57.4106 5.69673 57.5702 5.21245 57.8894 4.80522C58.2086 4.38698 58.6543 4.0678 59.2267 3.84767C59.81 3.61654 60.4979 3.50098 61.2904 3.50098C61.8847 3.50098 62.4845 3.56701 63.0899 3.69909C63.5943 3.80914 64.0261 3.95739 64.3853 4.14385C64.5044 4.20569 64.5456 4.3527 64.4851 4.4725L63.9252 5.58059C63.8575 5.7145 63.6905 5.76177 63.5578 5.69186C63.2183 5.51307 62.8752 5.38812 62.5286 5.31701C62.1103 5.21796 61.6921 5.16843 61.2738 5.16843C60.6465 5.16843 60.1787 5.26198 59.8705 5.44909C59.5734 5.6362 59.4248 5.87283 59.4248 6.15899C59.4248 6.42315 59.5238 6.62126 59.722 6.75333C59.9201 6.88541 60.1787 6.98997 60.4979 7.06701C60.8171 7.14406 61.1693 7.2101 61.5545 7.26513C61.9507 7.30915 62.3415 7.38069 62.7267 7.47975C63.1119 7.57881 63.4641 7.71638 63.7833 7.89248C64.1135 8.05758 64.3776 8.29421 64.5757 8.60239C64.7738 8.91057 64.8729 9.3123 64.8729 9.80758C64.8729 10.3579 64.7078 10.8367 64.3776 11.2439C64.0584 11.6511 63.6017 11.9703 63.0073 12.2014C62.413 12.4216 61.7031 12.5316 60.8776 12.5316Z" fill="white"/>
<path d="M52.1979 12.5316C51.4605 12.5316 50.7506 12.4381 50.0682 12.251C49.4978 12.0827 49.0267 11.8865 48.6549 11.6626C48.5449 11.5963 48.5099 11.4558 48.5678 11.3411L49.1307 10.227C49.1995 10.0909 49.3707 10.0444 49.5042 10.1181C49.8463 10.3071 50.2379 10.4677 50.6791 10.6C51.2294 10.7651 51.7797 10.8477 52.33 10.8477C52.9794 10.8477 53.4471 10.7596 53.7333 10.5835C54.0305 10.4074 54.1791 10.1708 54.1791 9.87362C54.1791 9.63148 54.08 9.44988 53.8819 9.32881C53.6838 9.19673 53.4251 9.09767 53.1059 9.03164C52.7868 8.9656 52.4291 8.90506 52.0328 8.85003C51.6476 8.795 51.2569 8.72346 50.8607 8.63541C50.4754 8.53635 50.1232 8.39877 49.8041 8.22267C49.4849 8.03557 49.2262 7.78793 49.0281 7.47975C48.83 7.17157 48.7309 6.76434 48.7309 6.25805C48.7309 5.69673 48.8905 5.21245 49.2097 4.80522C49.5289 4.38698 49.9747 4.0678 50.547 3.84767C51.1303 3.61654 51.8182 3.50098 52.6107 3.50098C53.205 3.50098 53.8048 3.56701 54.4102 3.69909C54.9146 3.80914 55.3464 3.95739 55.7056 4.14385C55.8247 4.20569 55.8659 4.3527 55.8054 4.4725L55.2455 5.58059C55.1779 5.7145 55.0108 5.76177 54.8781 5.69186C54.5386 5.51307 54.1955 5.38812 53.8489 5.31701C53.4306 5.21796 53.0124 5.16843 52.5942 5.16843C51.9668 5.16843 51.499 5.26198 51.1909 5.44909C50.8937 5.6362 50.7451 5.87283 50.7451 6.15899C50.7451 6.42315 50.8442 6.62126 51.0423 6.75333C51.2404 6.88541 51.499 6.98997 51.8182 7.06701C52.1374 7.14406 52.4896 7.2101 52.8748 7.26513C53.271 7.30915 53.6618 7.38069 54.047 7.47975C54.4322 7.57881 54.7844 7.71638 55.1036 7.89248C55.4338 8.05758 55.6979 8.29421 55.896 8.60239C56.0942 8.91057 56.1932 9.3123 56.1932 9.80758C56.1932 10.3579 56.0281 10.8367 55.6979 11.2439C55.3787 11.6511 54.922 11.9703 54.3276 12.2014C53.7333 12.4216 53.0234 12.5316 52.1979 12.5316Z" fill="white"/>
<path d="M43.1632 12.5316C42.1837 12.5316 41.3252 12.339 40.5878 11.9538C39.8614 11.5576 39.2945 11.0183 38.8873 10.3359C38.4911 9.65349 38.293 8.87755 38.293 8.00805C38.293 7.12755 38.4856 6.3516 38.8708 5.68022C39.267 4.99783 39.8063 4.46403 40.4887 4.07881C41.1821 3.69359 41.9691 3.50098 42.8496 3.50098C43.7081 3.50098 44.473 3.68808 45.1444 4.0623C45.8158 4.43651 46.3441 4.96481 46.7293 5.6472C47.1145 6.32959 47.3071 7.13305 47.3071 8.05758C47.3071 8.14563 47.3016 8.24469 47.2906 8.35475C47.2906 8.38301 47.2902 8.4109 47.2895 8.43844C47.2861 8.56966 47.1748 8.66843 47.0435 8.66843H40.185C40.0427 8.66843 39.9274 8.55309 39.9274 8.41081V7.55576C39.9274 7.41348 40.0427 7.29815 40.185 7.29815H45.5414C45.7082 7.29815 45.7638 7.52137 45.6165 7.59955C45.5085 7.65682 45.3778 7.5767 45.3699 7.45476C45.3442 7.05953 45.2416 6.70465 45.0618 6.39013C44.8417 6.00491 44.539 5.70223 44.1538 5.48211C43.7796 5.26198 43.3449 5.15192 42.8496 5.15192C42.3433 5.15192 41.8975 5.26198 41.5123 5.48211C41.1381 5.70223 40.8409 6.01041 40.6208 6.40664C40.4117 6.79186 40.3071 7.24862 40.3071 7.77692V8.10711C40.3071 8.63541 40.4282 9.10318 40.6703 9.51041C40.9125 9.91764 41.2537 10.2313 41.6939 10.4514C42.1342 10.6716 42.6405 10.7816 43.2128 10.7816C43.7081 10.7816 44.1538 10.7046 44.55 10.5505C44.8614 10.4294 45.1456 10.254 45.4026 10.0241C45.5165 9.92224 45.694 9.92443 45.7943 10.0397L46.5667 10.9275C46.6506 11.0239 46.6518 11.1679 46.5631 11.2599C46.1928 11.6433 45.7419 11.9462 45.2104 12.1684C44.6161 12.4106 43.9337 12.5316 43.1632 12.5316Z" fill="white"/>
<path d="M34.392 12.4971C34.2279 12.5427 34.0654 12.4193 34.0654 12.2489V1.26419C34.0654 1.15566 34.1334 1.05877 34.2355 1.0219L35.784 0.462562C35.9519 0.401904 36.1291 0.526312 36.1291 0.704855V11.8184C36.1291 11.9341 36.052 12.0356 35.9405 12.0666L34.392 12.4971Z" fill="white"/>
<path d="M26.2779 12.5317C25.4304 12.5317 24.6654 12.3446 23.983 11.9704C23.3117 11.5852 22.7834 11.0569 22.3981 10.3855C22.0129 9.7141 21.8203 8.92165 21.8203 8.00813C21.8203 7.09461 22.0129 6.30215 22.3981 5.63077C22.7834 4.95938 23.3117 4.43659 23.983 4.06237C24.6654 3.68816 25.4304 3.50105 26.2779 3.50105C27.0153 3.50105 27.6757 3.66615 28.259 3.99633C28.8423 4.31552 29.3046 4.8053 29.6458 5.46567C29.987 6.12605 30.1576 6.97354 30.1576 8.00813C30.1576 9.03171 29.9925 9.8792 29.6623 10.5506C29.3321 11.211 28.8753 11.7062 28.292 12.0364C27.7087 12.3666 27.0373 12.5317 26.2779 12.5317ZM26.5255 10.7652C27.0208 10.7652 27.461 10.6551 27.8463 10.435C28.2425 10.2149 28.5562 9.8957 28.7873 9.47747C29.0294 9.05923 29.1505 8.56945 29.1505 8.00813C29.1505 7.4358 29.0294 6.94602 28.7873 6.53879C28.5562 6.12055 28.2425 5.80137 27.8463 5.58124C27.461 5.36111 27.0208 5.25105 26.5255 5.25105C26.0302 5.25105 25.5845 5.36111 25.1882 5.58124C24.803 5.80137 24.4893 6.12055 24.2472 6.53879C24.0161 6.94602 23.9005 7.4358 23.9005 8.00813C23.9005 8.56945 24.0161 9.05923 24.2472 9.47747C24.4893 9.8957 24.803 10.2149 25.1882 10.435C25.5845 10.6551 26.0302 10.7652 26.5255 10.7652ZM29.5299 12.4916C29.365 12.5397 29.2 12.4161 29.2 12.2443V10.336L29.2826 7.99162L29.1175 5.64728V1.21015C29.1175 1.09946 29.1882 1.00114 29.2931 0.96592L30.8251 0.451842C30.992 0.395832 31.1647 0.520018 31.1647 0.696074V11.821C31.1647 11.9355 31.0891 12.0362 30.9792 12.0683L29.5299 12.4916Z" fill="white"/>
<path d="M16.0473 3.50098C16.7517 3.50098 17.379 3.63856 17.9294 3.91371C18.4907 4.18887 18.9309 4.61261 19.2501 5.18494C19.5693 5.74626 19.7289 6.47267 19.7289 7.36418V12.1585C19.7289 12.3007 19.6135 12.4161 19.4713 12.4161H17.9228C17.7805 12.4161 17.6652 12.3007 17.6652 12.1585V7.62833C17.6652 6.84689 17.4781 6.26355 17.1039 5.87833C16.7407 5.49311 16.2289 5.3005 15.5685 5.3005C15.0842 5.3005 14.655 5.39956 14.2808 5.59767C13.9066 5.79579 13.6149 6.09296 13.4058 6.48918C13.2077 6.8744 13.1086 7.36418 13.1086 7.95852V12.1585C13.1086 12.3007 12.9933 12.4161 12.851 12.4161H11.3025C11.1603 12.4161 11.0449 12.3007 11.0449 12.1585V4.52327C11.0449 4.41625 11.1111 4.32037 11.2111 4.28241L12.6605 3.73246C12.8291 3.6685 13.0095 3.79302 13.0095 3.97332V5.25619C13.0095 5.43012 12.7738 5.48349 12.6989 5.32652C12.6763 5.27909 12.6776 5.2235 12.7041 5.17809C13.0103 4.65236 13.4423 4.24741 14.0001 3.96324C14.5945 3.65506 15.2768 3.50098 16.0473 3.50098Z" fill="white"/>
<path d="M1.98113 5.92124C1.98113 5.77896 2.09647 5.66362 2.23875 5.66362H7.4688C7.61108 5.66362 7.72641 5.77896 7.72641 5.92124V7.17251C7.72641 7.31479 7.61108 7.43013 7.4688 7.43013H2.23875C2.09647 7.43013 1.98113 7.31479 1.98113 7.17251V5.92124ZM2.14623 10.3588C2.14623 10.5011 2.26156 10.6165 2.40384 10.6165H8.40984C8.55211 10.6165 8.66745 10.7318 8.66745 10.8741V12.1584C8.66745 12.3006 8.55211 12.416 8.40984 12.416H0.257616C0.115339 12.416 0 12.3006 0 12.1584V1.11699C0 0.974714 0.115339 0.859375 0.257616 0.859375H8.1787C8.32098 0.859375 8.43632 0.974714 8.43632 1.11699V2.40129C8.43632 2.54356 8.32098 2.6589 8.1787 2.6589H2.40384C2.26156 2.6589 2.14623 2.77424 2.14623 2.91652V10.3588Z" fill="white"/>
</svg>
