<?xml version="1.0" encoding="UTF-8" standalone="no"?>
<!DOCTYPE svg PUBLIC "-//W3C//DTD SVG 1.1//EN" "http://www.w3.org/Graphics/SVG/1.1/DTD/svg11.dtd">
<svg width="100%" height="100%" viewBox="0 0 133 131" version="1.1" xmlns="http://www.w3.org/2000/svg" xmlns:xlink="http://www.w3.org/1999/xlink" xml:space="preserve" xmlns:serif="http://www.serif.com/" style="fill-rule:evenodd;clip-rule:evenodd;stroke-linejoin:round;stroke-miterlimit:2;">
    <g transform="matrix(1,0,0,1,-1465,-38)">
        <g transform="matrix(1,0,0,1,-0.0313712,-0.440186)">
            <g transform="matrix(8.11115,0,0,8.11115,734.538,30.9527)">
                <g>
                    <path d="M98.731,6.088C99.036,5.784 99.555,5.923 99.667,6.338L100.948,11.121C101.059,11.536 100.679,11.917 100.263,11.805L95.481,10.524C95.065,10.412 94.926,9.893 95.23,9.589L98.731,6.088Z" style="fill:white;fill-rule:nonzero;"/>
                    <path d="M96.886,16.634C96.582,16.938 96.062,16.799 95.951,16.383L94.67,11.601C94.558,11.185 94.938,10.805 95.354,10.916L100.136,12.198C100.552,12.309 100.691,12.828 100.387,13.133L96.886,16.634Z" style="fill:white;fill-rule:nonzero;"/>
                    <path d="M94.948,9.257C94.643,9.561 94.124,9.422 94.012,9.006L92.731,4.224C92.62,3.808 93,3.428 93.416,3.539L98.198,4.821C98.614,4.932 98.753,5.452 98.449,5.756L94.948,9.257Z" style="fill:white;fill-rule:nonzero;"/>
                    <path d="M99.505,1.017C99.922,0.901 100.307,1.282 100.195,1.7L99.518,4.229C99.438,4.527 99.131,4.704 98.833,4.624L94.555,3.478C94.006,3.331 94.002,2.552 94.55,2.4L99.505,1.017Z" style="fill:white;fill-opacity:0.2;fill-rule:nonzero;"/>
                    <path d="M104.97,14.335C104.856,14.752 104.331,14.887 104.029,14.576L102.207,12.697C101.992,12.476 101.997,12.122 102.219,11.907L105.398,8.824C105.807,8.428 106.477,8.824 106.327,9.372L104.97,14.335Z" style="fill:white;fill-opacity:0.2;fill-rule:nonzero;"/>
                    <path d="M90.729,12.353C90.421,12.048 90.561,11.525 90.98,11.415L93.512,10.751C93.811,10.673 94.116,10.851 94.195,11.15L95.318,15.434C95.462,15.984 94.788,16.373 94.384,15.973L90.729,12.353Z" style="fill:white;fill-opacity:0.2;fill-rule:nonzero;"/>
                    <path d="M101.516,1.561C101.213,1.251 100.689,1.389 100.577,1.807L99.899,4.336C99.819,4.634 99.996,4.94 100.294,5.02L104.572,6.166C105.122,6.314 105.514,5.642 105.116,5.235L101.516,1.561Z" style="fill:white;fill-opacity:0.7;fill-rule:nonzero;"/>
                    <path d="M103.476,15.796C103.897,15.694 104.048,15.174 103.747,14.863L101.924,12.984C101.709,12.762 101.356,12.757 101.134,12.972L97.955,16.055C97.546,16.451 97.921,17.133 98.475,17L103.476,15.796Z" style="fill:white;fill-opacity:0.7;fill-rule:nonzero;"/>
                    <path d="M90.202,10.327C90.083,10.743 90.462,11.131 90.881,11.021L93.413,10.357C93.712,10.278 93.89,9.973 93.812,9.674L92.689,5.39C92.544,4.84 91.766,4.832 91.61,5.379L90.202,10.327Z" style="fill:white;fill-opacity:0.7;fill-rule:nonzero;"/>
                    <path d="M102.33,11.234C102.026,11.538 101.506,11.399 101.395,10.983L100.113,6.201C100.002,5.785 100.382,5.405 100.798,5.516L105.58,6.798C105.996,6.909 106.135,7.429 105.831,7.733L102.33,11.234Z" style="fill:white;fill-rule:nonzero;"/>
                </g>
            </g>
        </g>
    </g>
</svg>
